<?xml version="1.0" encoding="UTF-8" standalone="no"?>
<!DOCTYPE svg PUBLIC "-//W3C//DTD SVG 1.1//EN" "http://www.w3.org/Graphics/SVG/1.1/DTD/svg11.dtd">
<svg width="100%" height="100%" viewBox="0 0 64 49" version="1.1" xmlns="http://www.w3.org/2000/svg" xmlns:xlink="http://www.w3.org/1999/xlink" xml:space="preserve" xmlns:serif="http://www.serif.com/" style="fill-rule:evenodd;clip-rule:evenodd;stroke-linejoin:round;stroke-miterlimit:2;">
    <g transform="matrix(1.33403,0,0,1.33403,93.2487,291.085)">
        <g id="Icon-Envelope">
            <path id="Fill-3" d="M-22.5,-213.2L-24.4,-215.1L-42,-197.5C-44.2,-195.3 -47.9,-195.3 -50.1,-197.5L-67.7,-215L-69.6,-213.1L-56.5,-200L-69.6,-186.9L-67.7,-185L-54.6,-198.1L-52,-195.5C-50.4,-193.9 -48.3,-193 -46.1,-193C-43.9,-193 -41.8,-193.9 -40.2,-195.5L-37.6,-198.1L-24.5,-185L-22.6,-186.9L-35.7,-200L-22.5,-213.2" style="fill:white;fill-rule:nonzero;"/>
            <path id="Fill-4" d="M-26.2,-181.6L-65.7,-181.6C-68,-181.6 -69.9,-183.5 -69.9,-185.8L-69.9,-214C-69.9,-216.3 -68,-218.2 -65.7,-218.2L-26.2,-218.2C-23.9,-218.2 -22,-216.3 -22,-214L-22,-185.8C-22,-183.5 -23.9,-181.6 -26.2,-181.6ZM-65.8,-215.5C-66.6,-215.5 -67.2,-214.9 -67.2,-214.1L-67.2,-185.9C-67.2,-185.1 -66.6,-184.5 -65.8,-184.5L-26.3,-184.5C-25.5,-184.5 -24.9,-185.1 -24.9,-185.9L-24.9,-214.1C-24.9,-214.9 -25.5,-215.5 -26.3,-215.5L-65.8,-215.5Z" style="fill:white;fill-rule:nonzero;"/>
        </g>
    </g>
</svg>
