<?xml version="1.0" encoding="UTF-8" standalone="no"?>
<!DOCTYPE svg PUBLIC "-//W3C//DTD SVG 1.1//EN" "http://www.w3.org/Graphics/SVG/1.1/DTD/svg11.dtd">
<svg width="100%" height="100%" viewBox="0 0 478 478" version="1.1" xmlns="http://www.w3.org/2000/svg" xmlns:xlink="http://www.w3.org/1999/xlink" xml:space="preserve" xmlns:serif="http://www.serif.com/" style="fill-rule:evenodd;clip-rule:evenodd;stroke-linejoin:round;stroke-miterlimit:2;">
    <path d="M475.009,380.316L472.634,373.16C467.009,356.441 448.572,339.004 431.634,334.41L368.946,317.285C351.946,312.66 327.696,318.879 315.258,331.316L292.57,354.004C210.117,331.724 145.461,267.066 123.211,184.629L145.9,161.94C158.338,149.502 164.556,125.284 159.931,108.284L142.837,45.565C138.212,28.596 120.743,10.159 104.056,4.596L96.9,2.19C80.181,-3.373 56.337,2.253 43.9,14.69L9.962,48.659C3.899,54.69 0.024,71.94 0.024,72.003C-1.163,179.753 41.087,283.565 117.305,359.784C193.336,435.815 296.759,478.003 404.196,477.097C404.758,477.097 422.508,473.284 428.571,467.252L462.509,433.314C474.946,420.878 480.571,397.035 475.009,380.316Z" style="fill:white;fill-rule:nonzero;"/>
</svg>
