<?xml version="1.0" encoding="UTF-8" standalone="no"?>
<!DOCTYPE svg PUBLIC "-//W3C//DTD SVG 1.1//EN" "http://www.w3.org/Graphics/SVG/1.1/DTD/svg11.dtd">
<svg width="100%" height="100%" viewBox="0 0 119 150" version="1.1" xmlns="http://www.w3.org/2000/svg" xmlns:xlink="http://www.w3.org/1999/xlink" xml:space="preserve" xmlns:serif="http://www.serif.com/" style="fill-rule:evenodd;clip-rule:evenodd;stroke-linejoin:round;stroke-miterlimit:2;">
    <g id="Path-3" serif:id="Path 3" transform="matrix(0.179744,0,0,0.179744,-344.35,-444.711)">
        <path d="M2393.43,2994.73C2391.96,2991.96 2390.42,2989.1 2389.41,2987.28C2387.95,2984.51 2385.57,2980.06 2384.03,2977.3C2382.57,2974.53 2379.43,2969.01 2377.12,2965.01C2374.82,2961.02 2370.45,2953.73 2367.53,2948.89C2364.61,2944.06 2357.78,2933.16 2352.41,2924.72C2347.03,2916.27 2341.05,2906.6 2338.97,2903.22C2336.98,2899.85 2332.91,2892.55 2330.07,2887.1C2327.23,2881.65 2323.31,2873.13 2321.39,2868.3C2319.48,2863.46 2317.02,2856.01 2315.95,2851.79C2314.87,2847.57 2313.49,2840.13 2312.88,2835.29C2312.18,2830.45 2311.34,2824.39 2310.88,2821.86C2310.42,2819.32 2309.42,2814.87 2308.5,2811.88C2307.66,2808.88 2305.89,2804.43 2304.66,2801.9C2303.36,2799.37 2300.67,2795.22 2298.6,2792.69C2296.53,2790.16 2290.15,2783.71 2284.32,2778.41C2278.49,2773.11 2271.81,2766.59 2269.43,2763.83C2267.05,2761.14 2263.13,2756.15 2260.68,2752.77C2258.3,2749.39 2254.15,2743.02 2251.47,2738.57C2248.86,2734.12 2243.94,2725.29 2234.58,2707.25L2237.34,2701.57C2238.95,2698.5 2241.72,2692.52 2243.64,2688.29C2245.56,2684.07 2247.86,2677.7 2248.78,2674.09C2249.7,2670.49 2250.7,2664.5 2250.93,2660.66C2251.16,2656.51 2250.93,2652.22 2250.39,2649.91C2249.93,2647.84 2248.55,2643.93 2247.4,2641.24C2246.25,2638.63 2245.17,2636.4 2244.94,2636.48C2244.71,2636.48 2243.18,2638.09 2241.49,2640.09C2239.8,2642.16 2233.58,2648.69 2227.67,2654.75C2221.76,2660.81 2214.78,2667.64 2212.16,2669.95C2209.48,2672.25 2206.95,2674.09 2206.56,2674.09C2206.1,2674.09 2205.95,2672.33 2206.18,2669.72C2206.33,2667.26 2206.72,2662.5 2206.95,2659.12C2207.18,2655.75 2207.48,2648.92 2207.71,2644C2208.02,2637.1 2207.87,2634.95 2207.18,2634.95C2206.64,2634.95 2203.26,2635.79 2199.65,2636.79C2196.05,2637.79 2190.37,2639.93 2186.99,2641.47C2183.61,2643.01 2178.08,2646.08 2174.71,2648.38C2171.33,2650.61 2166.03,2654.83 2162.89,2657.67C2159.82,2660.58 2155.13,2665.73 2152.6,2669.1C2150.07,2672.48 2146.69,2677.78 2142.08,2686.38L2137.32,2686.45C2134.64,2686.45 2131.95,2686.61 2131.34,2686.68C2130.72,2686.84 2126.04,2687.14 2120.97,2687.45C2115.91,2687.76 2110.69,2688.14 2109.46,2688.29C2108.23,2688.45 2103.4,2688.99 2098.71,2689.45C2094.03,2689.98 2083.67,2691.36 2075.69,2692.59C2067.7,2693.74 2055.04,2695.97 2047.67,2697.51C2040.3,2698.96 2028.17,2701.73 2020.8,2703.57C2013.43,2705.49 2001.69,2708.71 1994.7,2710.78C1987.72,2712.93 1975.82,2716.85 1968.22,2719.61C1960.62,2722.3 1947.8,2727.21 1939.82,2730.51C1934.26,2732.87 1924.85,2737.16 1915.78,2741.5C1916.33,2736.93 1916.91,2732.65 1917.43,2729.52C1918.61,2722.48 1920.95,2711.17 1922.66,2704.45C1924.37,2697.72 1927.68,2686.52 1930.13,2679.58C1932.48,2672.75 1936.53,2662.19 1939.2,2656.11C1941.98,2650.13 1946.35,2641.16 1949.02,2636.15C1951.69,2631.13 1956.6,2622.7 1959.9,2617.47C1963.11,2612.25 1970.15,2602.11 1975.48,2595.07C1980.71,2588.02 1991.81,2575.32 2000.03,2566.89C2008.25,2558.46 2019.98,2547.47 2026.17,2542.56C2032.36,2537.55 2043.67,2529.33 2051.25,2524.31C2058.83,2519.3 2071.42,2511.94 2079,2507.99C2086.57,2504.04 2098.63,2498.6 2105.68,2495.72C2112.72,2492.94 2124.46,2488.89 2131.82,2486.64C2139.18,2484.51 2151.45,2481.52 2159.03,2480.03C2166.61,2478.53 2177.49,2476.83 2183.04,2476.19C2188.59,2475.55 2195.1,2474.8 2197.45,2474.69C2199.8,2474.48 2208.23,2474.27 2216.12,2474.16C2224.02,2474.05 2236.08,2474.48 2242.8,2475.01C2249.52,2475.55 2260.09,2476.83 2266.28,2477.79C2272.47,2478.75 2283.99,2481.1 2291.89,2483.02C2299.79,2485.04 2311.85,2488.57 2318.57,2490.91C2325.29,2493.26 2334.89,2496.89 2339.91,2499.02C2344.93,2501.16 2354.53,2505.75 2361.25,2509.27C2367.98,2512.9 2378.33,2518.87 2384.2,2522.71C2390.07,2526.55 2399.14,2532.96 2404.47,2537.01C2409.81,2540.96 2418.99,2548.75 2424.96,2554.19C2431.04,2559.64 2439.58,2568.17 2444.06,2573.19C2448.55,2578.2 2455.05,2585.89 2458.68,2590.26C2462.2,2594.64 2468.5,2603.5 2472.77,2610.01C2477.14,2616.51 2483.44,2626.97 2487.07,2633.48C2490.59,2639.99 2495.82,2650.77 2498.7,2657.49C2501.58,2664.22 2505.96,2675.53 2508.3,2682.57C2510.65,2689.61 2513.85,2700.18 2515.35,2706.05C2516.84,2711.92 2519.08,2722.48 2520.26,2729.52C2521.54,2736.67 2522.82,2749.69 2523.14,2758.87C2523.46,2768.8 2523.24,2779.47 2522.5,2785.55C2521.75,2791.1 2520.15,2800.06 2518.87,2805.29C2517.38,2811.37 2516.52,2818.31 2516.52,2823.97C2516.52,2832.29 2516.84,2833.68 2520.36,2840.51C2522.39,2844.67 2528.15,2854.27 2532.95,2861.85C2537.86,2869.43 2548.96,2887.46 2557.71,2901.87C2568.7,2920.01 2574.04,2929.93 2575.32,2934.41C2576.46,2938.68 2576.81,2942.6 2576.39,2946.15C2575.96,2949.03 2574.25,2954.05 2572.55,2957.04C2570.73,2960.13 2567.32,2964.19 2564.86,2966C2562.3,2967.82 2558.14,2970.38 2555.47,2971.76C2552.8,2973.04 2545.33,2975.93 2538.93,2978.06C2532.53,2980.19 2525.27,2982.97 2522.92,2984.36C2519.83,2986.06 2517.8,2988.3 2515.67,2992.57C2513.75,2996.41 2512.79,3000.04 2512.79,3003.24C2512.79,3005.91 2513.32,3009.97 2513.96,3012.32C2514.6,3014.66 2516.52,3018.72 2518.23,3021.39C2519.94,3024.05 2521.64,3028.11 2521.96,3030.46C2522.5,3033.66 2522.07,3035.9 2520.36,3039.21C2519.19,3041.77 2516.2,3045.93 2509.59,3053.4L2512.57,3057.35C2514.71,3060.23 2515.56,3062.79 2515.88,3067.16C2516.09,3071.65 2515.67,3074.21 2514.07,3077.41C2512.89,3079.76 2510.01,3083.49 2507.56,3085.63C2505.21,3087.87 2502.33,3090.11 2501.37,3090.64C2500.3,3091.18 2497.95,3094.38 2496.14,3097.79C2494.22,3101.31 2492.19,3106.97 2491.44,3110.49C2490.7,3114.01 2490.38,3119.45 2490.8,3122.76C2491.12,3125.96 2492.62,3133.43 2494.11,3139.3C2495.82,3146.13 2496.78,3152.96 2496.78,3158.51C2496.78,3164.06 2496.03,3169.4 2494.64,3173.99C2493.47,3177.83 2490.7,3183.27 2488.45,3186.26C2486.22,3189.14 2482.05,3193.41 2479.17,3195.54C2476.18,3197.78 2470.95,3200.77 2467.43,3202.16C2463.91,3203.55 2457.19,3205.47 2452.49,3206.43C2446.94,3207.6 2438.73,3208.24 2429.02,3208.24C2420.8,3208.24 2406.61,3207.39 2397.54,3206.32C2388.47,3205.25 2374.49,3204.4 2366.59,3204.4C2353.89,3204.4 2351.54,3204.72 2347.17,3206.75C2343.97,3208.35 2340.87,3210.91 2338.84,3213.68C2337.03,3216.24 2335.11,3220.62 2334.47,3223.61C2333.93,3226.49 2333.08,3243.88 2332.76,3262.02C2332.12,3292.54 2331.91,3295.43 2329.88,3299.37C2328.28,3302.36 2326.14,3304.39 2322.84,3306.1C2320.17,3307.38 2316.54,3308.44 2314.83,3308.44C2313.12,3308.44 2242.48,3281.23 2157.96,3248.04C2141.31,3241.49 2125.22,3235.13 2110.09,3229.16C2107.44,3222.94 2104.6,3216.51 2102.55,3212.18C2099.33,3205.2 2093.88,3194.38 2090.42,3188C2087.05,3181.71 2081.67,3172.19 2078.53,3166.89C2075.38,3161.6 2070.01,3153 2066.55,3147.7C2063.1,3142.41 2057.03,3133.58 2053.04,3128.13C2049.13,3122.68 2043.29,3114.85 2040.15,3110.86C2036.92,3106.87 2033.54,3101.88 2032.62,3099.73C2031.7,3097.66 2029.86,3092.82 2028.56,3088.98C2027.17,3085.14 2025.25,3079.16 2024.26,3075.55C2023.26,3071.94 2021.8,3065.72 2020.96,3061.73C2020.11,3057.74 2018.81,3049.91 2018.12,3044.46C2017.35,3038.47 2016.81,3028.8 2016.81,3020.28C2016.81,3012.45 2016.96,3004.39 2017.19,3002.24C2017.5,3000.17 2017.88,2996.49 2018.12,2994.18C2018.35,2991.88 2019.42,2985.28 2020.5,2979.6C2021.57,2973.92 2023.64,2965.24 2025.02,2960.41C2025.34,2959.31 2026.71,2956.09 2028.62,2951.82L2048.86,2948.33C2056.75,2970.72 2077.06,2985.64 2091.51,2994.59C2115.04,3009.16 2142.98,3016.41 2176.24,3006.22L2184.52,3010C2184.5,3010.08 2184.5,3010.15 2184.53,3010.23C2184.61,3010.61 2190.21,3014.68 2196.97,3019.21C2203.72,3023.74 2215.08,3031.57 2222.3,3036.63C2229.51,3041.78 2238.8,3048.53 2243.02,3051.68C2247.24,3054.82 2255.61,3061.35 2261.68,3066.11C2271.27,3073.71 2273.11,3075.63 2277.03,3081.54C2279.1,3084.64 2292.71,3101.62 2298.21,3108.85C2298.21,3110.24 2298.2,3111.86 2298.49,3113.87C2299.11,3118.45 2305.5,3122.61 2307.77,3126.88C2310.96,3133.11 2313.9,3134.15 2320.91,3135.69C2328.43,3137.35 2343.38,3136.38 2348.17,3129.6C2351.94,3132.61 2356.29,3132.44 2361.01,3130.36C2365.1,3128.55 2390.07,3118.3 2393.78,3114.55C2399.42,3108.78 2406.69,3099.95 2409.94,3092.02C2411.82,3087.4 2412.78,3083.81 2415.41,3079.41C2417.43,3075.93 2419.55,3072.24 2421.16,3068.53C2425.13,3058.57 2422.91,3048.9 2419.33,3038.98C2417.48,3033.69 2413.74,3029.93 2410.99,3024.88C2408.46,3020.18 2407.28,3015.42 2405.1,3010.65C2402.48,3004.81 2397.89,2999.78 2393.43,2994.73ZM2382.65,3035.07C2384.87,3035.23 2388.04,3036.1 2389.79,3036.9C2391.53,3037.77 2393.99,3039.75 2395.26,3041.18C2396.53,3042.68 2398.03,3045.06 2398.67,3046.49C2399.22,3047.84 2399.7,3049.66 2399.7,3050.45C2399.7,3051.48 2398.91,3051.88 2396.76,3052.04C2395.1,3052.2 2392.33,3052.91 2390.58,3053.7C2388.84,3054.5 2386.06,3056.32 2384.4,3057.83C2382.65,3059.33 2380.35,3062.51 2379.24,3064.88C2377.66,3068.13 2377.18,3070.43 2377.26,3074C2377.26,3077.17 2377.82,3079.87 2379.01,3082.17C2379.88,3083.99 2380.51,3085.66 2380.27,3085.89C2380.04,3086.13 2378.21,3085.42 2376.15,3084.39C2374.01,3083.36 2371.16,3081.14 2369.65,3079.47C2368.14,3077.73 2366,3074.4 2364.89,3072.02C2363.15,3068.29 2362.83,3066.55 2362.83,3060.13C2362.83,3053.94 2363.15,3051.88 2364.66,3048.87C2365.61,3046.73 2368.06,3043.24 2370.2,3041.02C2372.27,3038.72 2375.04,3036.42 2376.31,3035.79C2377.74,3035.15 2380.27,3034.83 2382.65,3035.07ZM2213.09,2828C2218.77,2828.15 2222.37,2828.76 2226.9,2830.22C2230.28,2831.3 2235.12,2833.37 2237.65,2834.91C2240.18,2836.37 2243.79,2838.9 2249.01,2843.35L2247.01,2847.19C2245.94,2849.34 2243.56,2852.72 2241.8,2854.79C2239.95,2856.86 2236.35,2859.7 2233.81,2861.16C2231.28,2862.62 2227.29,2864.3 2224.98,2864.92C2222.68,2865.53 2219.69,2865.99 2218.46,2866.07C2216.62,2866.07 2215.24,2865.07 2211.55,2861.24C2209.02,2858.55 2205.87,2854.86 2204.57,2852.95C2203.26,2851.03 2200.96,2847.11 2199.42,2844.12C2197.89,2841.12 2195.97,2836.9 2193.51,2830.68L2196.43,2829.92C2197.97,2829.46 2200.65,2828.84 2202.34,2828.46C2204.03,2828.07 2208.87,2827.84 2213.09,2828ZM2418.47,2808.34C2408.62,2830.72 2418.24,2844.56 2444,2843.28C2461.6,2839.73 2470.54,2829.78 2472.69,2820.77C2470.4,2798.7 2423.12,2797.76 2418.47,2808.34Z" style="fill:rgb(66,143,78);fill-rule:nonzero;"/>
    </g>
</svg>
